HIERARCHY
ROOT hip
{
  OFFSET 0 90.174 2.4664
  CHANNELS 6 Xposition Yposition Zposition Zrotation Xrotation Yrotation
  JOINT abdomen
  {
    OFFSET 0 -1.186 -1.5018
    CHANNELS 6 Xposition Yposition Zposition Zrotation Xrotation Yrotation
    JOINT abdomen2
    {
      OFFSET 0 9.964 0.2134
      CHANNELS 6 Xposition Yposition Zposition Zrotation Xrotation Yrotation
      JOINT chest
      {
        OFFSET 0 13.134 -3.2573
        CHANNELS 6 Xposition Yposition Zposition Zrotation Xrotation Yrotation
        JOINT neck
        {
          OFFSET 0 20.686 -1.6905
          CHANNELS 6 Xposition Yposition Zposition Zrotation Xrotation Yrotation
          JOINT head
          {
            OFFSET 0 7.238 -0.1237
            CHANNELS 6 Xposition Yposition Zposition Zrotation Xrotation Yrotation
            End Site
            {
              OFFSET 0 0 0
            }
          }
        }
        JOINT lCollar
        {
          OFFSET 1.7069 20.075 5.0056
          CHANNELS 6 Xposition Yposition Zposition Zrotation Xrotation Yrotation
          JOINT lShldr
          {
            OFFSET 13.6458 -0.047 -4.849
            CHANNELS 6 Xposition Yposition Zposition Zrotation Xrotation Yrotation
            JOINT lForeArm
            {
              OFFSET 28.3255 -0.9759 2.2888
              CHANNELS 6 Xposition Yposition Zposition Zrotation Xrotation Yrotation
              JOINT lHand
              {
                OFFSET 22.1583 -0.53 10.8316
                CHANNELS 6 Xposition Yposition Zposition Zrotation Xrotation Yrotation
                JOINT lThumb1
                {
                  OFFSET 0.786 0.112 2.5817
                  CHANNELS 6 Xposition Yposition Zposition Zrotation Xrotation Yrotation
                  JOINT lThumb2
                  {
                    OFFSET 0.3601 -0.878 4.2331
                    CHANNELS 6 Xposition Yposition Zposition Zrotation Xrotation Yrotation
                    JOINT lThumb2_End
                    {
                      OFFSET 1.8127 -1.216 2.2227
                      CHANNELS 6 Xposition Yposition Zposition Zrotation Xrotation Yrotation
                      End Site
                      {
                        OFFSET 0.0181 -0.0122 0.0222
                      }
                    }
                  }
                }
                JOINT lCarpal1
                {
                  OFFSET 0.9571 1.114 1.7695
                  CHANNELS 6 Xposition Yposition Zposition Zrotation Xrotation Yrotation
                  JOINT lIndex1
                  {
                    OFFSET 4.1246 0.487 4.1451
                    CHANNELS 6 Xposition Yposition Zposition Zrotation Xrotation Yrotation
                    JOINT lIndex2
                    {
                      OFFSET 3.4052 -1.454 2.7682
                      CHANNELS 6 Xposition Yposition Zposition Zrotation Xrotation Yrotation
                      JOINT lIndex2_End
                      {
                        OFFSET 1.4531 -1.795 1.2713
                        CHANNELS 6 Xposition Yposition Zposition Zrotation Xrotation Yrotation
                        End Site
                        {
                          OFFSET 0.0145 -0.0179 0.0127
                        }
                      }
                    }
                  }
                  JOINT lMid1
                  {
                    OFFSET 5.6954 0.21 2.1184
                    CHANNELS 6 Xposition Yposition Zposition Zrotation Xrotation Yrotation
                    JOINT lMid2
                    {
                      OFFSET 3.9766 -1.54 2.3863
                      CHANNELS 6 Xposition Yposition Zposition Zrotation Xrotation Yrotation
                      JOINT lMid2_End
                      {
                        OFFSET 1.4042 -1.926 1.125
                        CHANNELS 6 Xposition Yposition Zposition Zrotation Xrotation Yrotation
                        End Site
                        {
                          OFFSET 0.014 -0.0193 0.0113
                        }
                      }
                    }
                  }
                }
                JOINT lCarpal2
                {
                  OFFSET 2.0956 0.66 -0.3894
                  CHANNELS 6 Xposition Yposition Zposition Zrotation Xrotation Yrotation
                  JOINT lRing1
                  {
                    OFFSET 5.0395 -0.09 2.4971
                    CHANNELS 6 Xposition Yposition Zposition Zrotation Xrotation Yrotation
                    JOINT lRing2
                    {
                      OFFSET 3.7921 -1.552 1.4806
                      CHANNELS 6 Xposition Yposition Zposition Zrotation Xrotation Yrotation
                      JOINT lRing2_End
                      {
                        OFFSET 1.4655 -1.808 0.9609
                        CHANNELS 6 Xposition Yposition Zposition Zrotation Xrotation Yrotation
                        End Site
                        {
                          OFFSET 0.0147 -0.0181 0.0096
                        }
                      }
                    }
                  }
                  JOINT lPinky1
                  {
                    OFFSET 4.9141 -1.269 0.3591
                    CHANNELS 6 Xposition Yposition Zposition Zrotation Xrotation Yrotation
                    JOINT lPinky2
                    {
                      OFFSET 3.1477 -1.685 0.8462
                      CHANNELS 6 Xposition Yposition Zposition Zrotation Xrotation Yrotation
                      JOINT lPinky2_End
                      {
                        OFFSET 0.8055 -1.585 0.7955
                        CHANNELS 6 Xposition Yposition Zposition Zrotation Xrotation Yrotation
                        End Site
                        {
                          OFFSET 0.0081 -0.0158 0.008
                        }
                      }
                    }
                  }
                }
              }
            }
          }
        }
        JOINT rCollar
        {
          OFFSET -1.7069 20.075 5.0056
          CHANNELS 6 Xposition Yposition Zposition Zrotation Xrotation Yrotation
          JOINT rShldr
          {
            OFFSET -13.6458 -0.047 -4.849
            CHANNELS 6 Xposition Yposition Zposition Zrotation Xrotation Yrotation
            JOINT rForeArm
            {
              OFFSET -28.3255 -0.9759 2.2888
              CHANNELS 6 Xposition Yposition Zposition Zrotation Xrotation Yrotation
              JOINT rHand
              {
                OFFSET -22.1583 -0.53 10.8316
                CHANNELS 6 Xposition Yposition Zposition Zrotation Xrotation Yrotation
                JOINT rThumb1
                {
                  OFFSET -0.786 0.112 2.5817
                  CHANNELS 6 Xposition Yposition Zposition Zrotation Xrotation Yrotation
                  JOINT rThumb2
                  {
                    OFFSET -0.3601 -0.878 4.2331
                    CHANNELS 6 Xposition Yposition Zposition Zrotation Xrotation Yrotation
                    JOINT rThumb2_End
                    {
                      OFFSET -1.8127 -1.216 2.2227
                      CHANNELS 6 Xposition Yposition Zposition Zrotation Xrotation Yrotation
                      End Site
                      {
                        OFFSET -0.0181 -0.0122 0.0222
                      }
                    }
                  }
                }
                JOINT rCarpal1
                {
                  OFFSET -0.9571 1.114 1.7695
                  CHANNELS 6 Xposition Yposition Zposition Zrotation Xrotation Yrotation
                  JOINT rIndex1
                  {
                    OFFSET -4.1246 0.487 4.1451
                    CHANNELS 6 Xposition Yposition Zposition Zrotation Xrotation Yrotation
                    JOINT rIndex2
                    {
                      OFFSET -3.4052 -1.454 2.7682
                      CHANNELS 6 Xposition Yposition Zposition Zrotation Xrotation Yrotation
                      JOINT rIndex2_End
                      {
                        OFFSET -1.4531 -1.795 1.2713
                        CHANNELS 6 Xposition Yposition Zposition Zrotation Xrotation Yrotation
                        End Site
                        {
                          OFFSET -0.0145 -0.018 0.0127
                        }
                      }
                    }
                  }
                  JOINT rMid1
                  {
                    OFFSET -5.6954 0.21 2.1184
                    CHANNELS 6 Xposition Yposition Zposition Zrotation Xrotation Yrotation
                    JOINT rMid2
                    {
                      OFFSET -3.9766 -1.54 2.3863
                      CHANNELS 6 Xposition Yposition Zposition Zrotation Xrotation Yrotation
                      JOINT rMid2_End
                      {
                        OFFSET -1.4042 -1.926 1.125
                        CHANNELS 6 Xposition Yposition Zposition Zrotation Xrotation Yrotation
                        End Site
                        {
                          OFFSET -0.014 -0.0193 0.0113
                        }
                      }
                    }
                  }
                }
                JOINT rCarpal2
                {
                  OFFSET -2.0956 0.66 -0.3894
                  CHANNELS 6 Xposition Yposition Zposition Zrotation Xrotation Yrotation
                  JOINT rRing1
                  {
                    OFFSET -5.0395 -0.09 2.4971
                    CHANNELS 6 Xposition Yposition Zposition Zrotation Xrotation Yrotation
                    JOINT rRing2
                    {
                      OFFSET -3.7921 -1.552 1.4806
                      CHANNELS 6 Xposition Yposition Zposition Zrotation Xrotation Yrotation
                      JOINT rRing2_End
                      {
                        OFFSET -1.4655 -1.808 0.9609
                        CHANNELS 6 Xposition Yposition Zposition Zrotation Xrotation Yrotation
                        End Site
                        {
                          OFFSET -0.0147 -0.0181 0.0096
                        }
                      }
                    }
                  }
                  JOINT rPinky1
                  {
                    OFFSET -4.9141 -1.269 0.3592
                    CHANNELS 6 Xposition Yposition Zposition Zrotation Xrotation Yrotation
                    JOINT rPinky2
                    {
                      OFFSET -3.1477 -1.685 0.8462
                      CHANNELS 6 Xposition Yposition Zposition Zrotation Xrotation Yrotation
                      JOINT rPinky2_End
                      {
                        OFFSET -0.8055 -1.585 0.7955
                        CHANNELS 6 Xposition Yposition Zposition Zrotation Xrotation Yrotation
                        End Site
                        {
                          OFFSET -0.0081 -0.0158 0.008
                        }
                      }
                    }
                  }
                }
              }
            }
          }
        }
      }
    }
  }
  JOINT lThigh
  {
    OFFSET 8.367 -8.2066 0.5982
    CHANNELS 6 Xposition Yposition Zposition Zrotation Xrotation Yrotation
    JOINT lShin
    {
      OFFSET 2.1923 -43.463 -0.4932
      CHANNELS 6 Xposition Yposition Zposition Zrotation Xrotation Yrotation
      JOINT lFoot
      {
        OFFSET 0.7333 -45.8593 -2.6451
        CHANNELS 6 Xposition Yposition Zposition Zrotation Xrotation Yrotation
        End Site
        {
          OFFSET 2.6618 -4.2699 12.3931
        }
      }
    }
  }
  JOINT rThigh
  {
    OFFSET -8.367 -8.2066 0.5982
    CHANNELS 6 Xposition Yposition Zposition Zrotation Xrotation Yrotation
    JOINT rShin
    {
      OFFSET -2.1923 -43.463 -0.4931
      CHANNELS 6 Xposition Yposition Zposition Zrotation Xrotation Yrotation
      JOINT rFoot
      {
        OFFSET -0.7333 -45.8593 -2.6451
        CHANNELS 6 Xposition Yposition Zposition Zrotation Xrotation Yrotation
        End Site
        {
          OFFSET -2.6618 -4.2699 12.3931
        }
      }
    }
  }
}
MOTION
Frames:	4
Frame Time:	0.0333333
44.8964 28.723 28.7214 92.8129 89.9863 135.18 0 -1.186 -1.5018 7.40299 3.71612 3.85818 7.10543e-015 9.964 0.2134 14.59 7.89172 7.22862 -3.55271e-015 13.134 -3.2573 14.59 7.89169 7.22864 -7.10543e-015 20.686 -1.6905 -1.82043e-005 -35.8029 -8.27491e-006 7.10543e-015 7.238 -0.1237 -2.31907e-007 -25.4265 1.58211e-006 1.7069 20.075 5.0056 9.3497 1.14812 37.7332 13.6458 -0.047 -4.849 4.7037 31.1043 -27.487 28.3255 -0.9759 2.2888 43.2998 -32.5933 -34.6508 22.1583 -0.53 10.8316 -5.91464 11.8401 0.722673 0.786 0.112 2.5817 -7.95139e-016 7.95139e-016 -1.90833e-014 0.3601 -0.878 4.2331 -1.43459e-007 9.41103e-007 1.08907e-008 1.8127 -1.216 2.2227 7.95139e-016 -2.38542e-015 -6.36111e-015 0.9571 1.114 1.7695 3.97252e-031 2.38542e-015 -9.54166e-015 4.1246 0.487 4.1451 -3.53113e-031 -1.59028e-015 -1.27222e-014 3.4052 -1.454 2.7682 -1.43459e-007 9.41103e-007 1.08907e-008 1.4531 -1.795 1.2713 7.95139e-016 -2.38542e-015 -6.36111e-015 5.6954 0.21 2.1184 -3.53113e-031 -1.59028e-015 -1.27222e-014 3.9766 -1.54 2.3863 -1.43459e-007 9.41103e-007 1.08907e-008 1.4042 -1.926 1.125 7.95139e-016 -2.38542e-015 -6.36111e-015 2.0956 0.66 -0.3894 3.97252e-031 2.38542e-015 -9.54166e-015 5.0395 -0.09 2.4971 -3.53113e-031 -1.59028e-015 -1.27222e-014 3.7921 -1.552 1.4806 -1.43459e-007 9.41103e-007 1.08907e-008 1.4655 -1.808 0.9609 7.95139e-016 -2.38542e-015 -6.36111e-015 4.9141 -1.269 0.3591 -3.53113e-031 -1.59028e-015 -1.27222e-014 3.1477 -1.685 0.8462 -1.43459e-007 9.41103e-007 1.08907e-008 0.8055 -1.585 0.7955 7.95139e-016 -2.38542e-015 -6.36111e-015 -1.7069 20.075 5.0056 27.9276 6.6966 19.2691 -13.6458 -0.047 -4.849 33.4416 -51.6131 -35.1415 -28.3255 -0.9759 2.2888 -0.449258 -14.0918 -16.2504 -22.1583 -0.53 10.8316 29.511 8.46219 -6.12005 -0.786 0.112 2.5817 0 0 -3.18055e-015 -0.3601 -0.878 4.2331 2.3823e-007 5.63528e-007 -5.94996e-007 -1.8127 -1.216 2.2227 3.18055e-015 3.18055e-015 -3.18055e-015 -0.9571 1.114 1.7695 0 0 -3.18055e-015 -4.1246 0.487 4.1451 -3.18055e-015 0 -0 -3.4052 -1.454 2.7682 2.3823e-007 5.63528e-007 -5.94996e-007 -1.4531 -1.795 1.2713 1.76556e-031 3.18055e-015 -3.18055e-015 -5.6954 0.21 2.1184 -3.18055e-015 0 -0 -3.9766 -1.54 2.3863 2.3823e-007 5.63528e-007 -5.94996e-007 -1.4042 -1.926 1.125 1.76556e-031 3.18055e-015 -3.18055e-015 -2.0956 0.66 -0.3894 0 0 -3.18055e-015 -5.0395 -0.09 2.4971 -3.18055e-015 0 -0 -3.7921 -1.552 1.4806 2.3823e-007 5.63528e-007 -5.94996e-007 -1.4655 -1.808 0.9609 1.76556e-031 3.18055e-015 -3.18055e-015 -4.9141 -1.269 0.3592 -3.18055e-015 0 -0 -3.1477 -1.685 0.8462 2.3823e-007 5.63528e-007 -5.94996e-007 -0.8055 -1.585 0.7955 1.76556e-031 3.18055e-015 -3.18055e-015 8.367 -8.2066 0.5982 135.393 -43.9919 131.571 2.1923 -43.463 -0.4932 33.7624 64.5834 -29.9014 0.7333 -45.8593 -2.6451 -19.046 17.0872 11.3184 -8.367 -8.2066 0.5982 150.65 -34.0496 157.149 -2.1923 -43.463 -0.4931 79.6198 47.3106 -80.5656 -0.7333 -45.8593 -2.6451 -0.886965 16.5639 10.0259 
44.8959 28.7255 28.9993 92.8129 89.9863 135.18 0 -1.186 -1.5018 7.56349 3.75135 3.82362 0 9.964 0.2134 14.9131 7.96677 7.14346 -1.06581e-014 13.134 -3.2573 14.913 7.96679 7.14346 0 20.686 -1.6905 -0.000337588 -35.3625 -0.000103853 0 7.238 -0.1237 6.55987e-007 -25.1112 3.22412e-006 1.7069 20.075 5.0056 8.10834 1.37454 37.3733 13.6458 -0.047 -4.849 4.7037 31.1042 -27.487 28.3255 -0.9759 2.2888 43.1449 -32.3865 -34.3701 22.1583 -0.53 10.8316 -5.32803 11.864 0.734304 0.786 0.112 2.5817 2.61228e-007 8.10314e-007 -1.97012e-008 0.3601 -0.878 4.2331 -5.86501e-008 -8.75621e-007 4.50883e-009 1.8127 -1.216 2.2227 2.61228e-007 8.10314e-007 -1.97013e-008 0.9571 1.114 1.7695 -7.95139e-016 0 -0 4.1246 0.487 4.1451 2.61228e-007 8.10314e-007 -1.97012e-008 3.4052 -1.454 2.7682 -5.86501e-008 -8.75621e-007 4.50884e-009 1.4531 -1.795 1.2713 2.61228e-007 8.10314e-007 -1.97012e-008 5.6954 0.21 2.1184 2.61228e-007 8.10314e-007 -1.97012e-008 3.9766 -1.54 2.3863 -5.86501e-008 -8.75621e-007 4.50884e-009 1.4042 -1.926 1.125 2.61228e-007 8.10314e-007 -1.97012e-008 2.0956 0.66 -0.3894 -7.95139e-016 0 -0 5.0395 -0.09 2.4971 2.61228e-007 8.10314e-007 -1.97012e-008 3.7921 -1.552 1.4806 -5.86501e-008 -8.75621e-007 4.50884e-009 1.4655 -1.808 0.9609 2.61228e-007 8.10314e-007 -1.97012e-008 4.9141 -1.269 0.3591 2.61228e-007 8.10314e-007 -1.97012e-008 3.1477 -1.685 0.8462 -5.86501e-008 -8.75621e-007 4.50884e-009 0.8055 -1.585 0.7955 2.61228e-007 8.10314e-007 -1.97012e-008 -1.7069 20.075 5.0056 27.3741 6.69973 19.2871 -13.6458 -0.047 -4.849 33.3256 -51.5446 -35.0068 -28.3255 -0.9759 2.2888 -0.449259 -14.0918 -16.2504 -22.1583 -0.53 10.8316 29.3541 8.42837 -6.00629 -0.786 0.112 2.5817 -5.79548e-006 1.04746e-006 2.36176e-006 -0.3601 -0.878 4.2331 5.31714e-006 -2.17465e-006 -1.17264e-006 -1.8127 -1.216 2.2227 -4.78342e-007 -1.12719e-006 1.18912e-006 -0.9571 1.114 1.7695 -1.59028e-015 0 3.18055e-015 -4.1246 0.487 4.1451 -5.79548e-006 1.04746e-006 2.36176e-006 -3.4052 -1.454 2.7682 5.31714e-006 -2.17465e-006 -1.17264e-006 -1.4531 -1.795 1.2713 -4.78342e-007 -1.12719e-006 1.18912e-006 -5.6954 0.21 2.1184 -5.79548e-006 1.04746e-006 2.36176e-006 -3.9766 -1.54 2.3863 5.31714e-006 -2.17465e-006 -1.17264e-006 -1.4042 -1.926 1.125 -4.78342e-007 -1.12719e-006 1.18912e-006 -2.0956 0.66 -0.3894 -1.59028e-015 0 3.18055e-015 -5.0395 -0.09 2.4971 -5.79548e-006 1.04746e-006 2.36176e-006 -3.7921 -1.552 1.4806 5.31714e-006 -2.17465e-006 -1.17264e-006 -1.4655 -1.808 0.9609 -4.78342e-007 -1.12719e-006 1.18912e-006 -4.9141 -1.269 0.3592 -5.79548e-006 1.04746e-006 2.36176e-006 -3.1477 -1.685 0.8462 5.31714e-006 -2.17465e-006 -1.17264e-006 -0.8055 -1.585 0.7955 -4.78342e-007 -1.12719e-006 1.18912e-006 8.367 -8.2066 0.5982 134.973 -43.9303 131.537 2.1923 -43.463 -0.4932 33.7615 64.5833 -29.9053 0.7333 -45.8593 -2.6451 -18.7725 16.9957 10.9869 -8.367 -8.2066 0.5982 150.118 -33.7388 157.349 -2.1923 -43.463 -0.4931 79.6293 47.3109 -80.5633 -0.7333 -45.8593 -2.6451 -0.250979 16.278 9.46143 
44.8954 28.7279 29.2772 92.8129 89.9863 135.18 0 -1.186 -1.5018 7.7241 3.78653 3.78901 0 9.964 0.2134 15.2364 8.04151 7.0581 0 13.134 -3.2573 15.2363 8.04152 7.05808 -7.10543e-015 20.686 -1.6905 -0.000139969 -34.9199 -0.000122462 -7.10543e-015 7.238 -0.1237 6.94209e-006 -24.7957 2.34391e-005 1.7069 20.075 5.0056 6.8656 1.60919 37.0175 13.6458 -0.047 -4.849 4.70369 31.1042 -27.487 28.3255 -0.9759 2.2888 42.9891 -32.1804 -34.0894 22.1583 -0.53 10.8316 -4.74114 11.888 0.745693 0.786 0.112 2.5817 8.68547e-007 6.14789e-007 -6.67046e-008 0.3601 -0.878 4.2331 4.05184e-007 -1.30386e-007 -3.08937e-008 1.8127 -1.216 2.2227 8.68547e-007 6.14789e-007 -6.67046e-008 0.9571 1.114 1.7695 -1.32417e-031 7.95139e-016 9.54166e-015 4.1246 0.487 4.1451 8.68547e-007 6.14789e-007 -6.67046e-008 3.4052 -1.454 2.7682 4.05184e-007 -1.30386e-007 -3.08937e-008 1.4531 -1.795 1.2713 8.68547e-007 6.14789e-007 -6.67046e-008 5.6954 0.21 2.1184 8.68547e-007 6.14789e-007 -6.67046e-008 3.9766 -1.54 2.3863 4.05184e-007 -1.30386e-007 -3.08937e-008 1.4042 -1.926 1.125 8.68547e-007 6.14789e-007 -6.67046e-008 2.0956 0.66 -0.3894 -1.32417e-031 7.95139e-016 9.54166e-015 5.0395 -0.09 2.4971 8.68547e-007 6.14789e-007 -6.67046e-008 3.7921 -1.552 1.4806 4.05184e-007 -1.30386e-007 -3.08937e-008 1.4655 -1.808 0.9609 8.68547e-007 6.14789e-007 -6.67046e-008 4.9141 -1.269 0.3591 8.68547e-007 6.14789e-007 -6.67046e-008 3.1477 -1.685 0.8462 4.05184e-007 -1.30386e-007 -3.08937e-008 0.8055 -1.585 0.7955 8.68547e-007 6.14789e-007 -6.67046e-008 -1.7069 20.075 5.0056 26.8204 6.70269 19.3052 -13.6458 -0.047 -4.849 33.2095 -51.4762 -34.8721 -28.3255 -0.9759 2.2888 -0.449265 -14.0918 -16.2504 -22.1583 -0.53 10.8316 29.1973 8.39422 -5.89265 -0.786 0.112 2.5817 -4.35634e-007 2.64014e-006 2.78037e-006 -0.3601 -0.878 4.2331 1.95522e-007 -3.20381e-006 -2.18625e-006 -1.8127 -1.216 2.2227 -6.75746e-007 2.07648e-006 3.3745e-006 -0.9571 1.114 1.7695 -0 0 3.18055e-015 -4.1246 0.487 4.1451 -4.35634e-007 2.64014e-006 2.78037e-006 -3.4052 -1.454 2.7682 1.95522e-007 -3.20381e-006 -2.18625e-006 -1.4531 -1.795 1.2713 -6.75746e-007 2.07648e-006 3.3745e-006 -5.6954 0.21 2.1184 -4.35634e-007 2.64014e-006 2.78037e-006 -3.9766 -1.54 2.3863 1.95522e-007 -3.20381e-006 -2.18625e-006 -1.4042 -1.926 1.125 -6.75746e-007 2.07648e-006 3.3745e-006 -2.0956 0.66 -0.3894 -0 0 3.18055e-015 -5.0395 -0.09 2.4971 -4.35634e-007 2.64014e-006 2.78037e-006 -3.7921 -1.552 1.4806 1.95522e-007 -3.20381e-006 -2.18625e-006 -1.4655 -1.808 0.9609 -6.75746e-007 2.07648e-006 3.3745e-006 -4.9141 -1.269 0.3592 -4.35634e-007 2.64014e-006 2.78037e-006 -3.1477 -1.685 0.8462 1.95522e-007 -3.20381e-006 -2.18625e-006 -0.8055 -1.585 0.7955 -6.75746e-007 2.07648e-006 3.3745e-006 8.367 -8.2066 0.5982 134.553 -43.8685 131.505 2.1923 -43.463 -0.4932 33.7609 64.5834 -29.9095 0.7333 -45.8593 -2.6451 -18.4996 16.9025 10.656 -8.367 -8.2066 0.5982 149.586 -33.4295 157.551 -2.1923 -43.463 -0.4931 79.6387 47.3112 -80.5607 -0.7333 -45.8593 -2.6451 0.381462 15.986 8.90061 
44.8948 28.7301 29.5552 92.8129 89.9863 135.18 0 -1.186 -1.5018 7.88477 3.82164 3.75444 7.10543e-015 9.964 0.2134 15.5599 8.11591 6.9725 -3.55271e-015 13.134 -3.2573 15.5599 8.1159 6.9725 -7.10543e-015 20.686 -1.6905 -0.000287819 -34.4786 -0.000116937 0 7.238 -0.1237 -3.9198e-006 -24.48 -9.25741e-006 1.7069 20.075 5.0056 5.62189 1.85197 36.6663 13.6458 -0.047 -4.849 4.70371 31.1043 -27.487 28.3255 -0.9759 2.2888 42.8325 -31.9748 -33.8085 22.1583 -0.53 10.8316 -4.15397 11.9122 0.756833 0.786 0.112 2.5817 2.02607e-007 -6.50763e-008 -1.56916e-008 0.3601 -0.878 4.2331 1.59028e-015 -7.95139e-016 9.54166e-015 1.8127 -1.216 2.2227 2.02607e-007 -6.50762e-008 -1.56916e-008 0.9571 1.114 1.7695 -1.32417e-031 7.95139e-016 9.54166e-015 4.1246 0.487 4.1451 2.02607e-007 -6.50763e-008 -1.56916e-008 3.4052 -1.454 2.7682 4.41391e-032 -7.95139e-016 3.18055e-015 1.4531 -1.795 1.2713 2.02607e-007 -6.50762e-008 -1.56916e-008 5.6954 0.21 2.1184 2.02607e-007 -6.50763e-008 -1.56916e-008 3.9766 -1.54 2.3863 4.41391e-032 -7.95139e-016 3.18055e-015 1.4042 -1.926 1.125 2.02607e-007 -6.50762e-008 -1.56916e-008 2.0956 0.66 -0.3894 -1.32417e-031 7.95139e-016 9.54166e-015 5.0395 -0.09 2.4971 2.02607e-007 -6.50763e-008 -1.56916e-008 3.7921 -1.552 1.4806 4.41391e-032 -7.95139e-016 3.18055e-015 1.4655 -1.808 0.9609 2.02607e-007 -6.50762e-008 -1.56916e-008 4.9141 -1.269 0.3591 2.02607e-007 -6.50763e-008 -1.56916e-008 3.1477 -1.685 0.8462 4.41391e-032 -7.95139e-016 3.18055e-015 0.8055 -1.585 0.7955 2.02607e-007 -6.50762e-008 -1.56916e-008 -1.7069 20.075 5.0056 26.2666 6.70548 19.3233 -13.6458 -0.047 -4.849 33.0934 -51.408 -34.7373 -28.3255 -0.9759 2.2888 -0.449248 -14.0918 -16.2504 -22.1583 -0.53 10.8316 29.0405 8.35977 -5.77909 -0.786 0.112 2.5817 2.41051e-007 5.63733e-007 -5.93684e-007 -0.3601 -0.878 4.2331 2.41051e-007 5.63733e-007 -5.93684e-007 -1.8127 -1.216 2.2227 7.95139e-015 -6.36111e-015 6.36111e-015 -0.9571 1.114 1.7695 1.59028e-015 -3.18055e-015 -3.18055e-015 -4.1246 0.487 4.1451 2.41051e-007 5.63733e-007 -5.93684e-007 -3.4052 -1.454 2.7682 2.41051e-007 5.63733e-007 -5.93684e-007 -1.4531 -1.795 1.2713 9.54166e-015 0 6.36111e-015 -5.6954 0.21 2.1184 2.41051e-007 5.63733e-007 -5.93684e-007 -3.9766 -1.54 2.3863 2.41051e-007 5.63733e-007 -5.93684e-007 -1.4042 -1.926 1.125 9.54166e-015 0 6.36111e-015 -2.0956 0.66 -0.3894 1.59028e-015 -3.18055e-015 -3.18055e-015 -5.0395 -0.09 2.4971 2.41051e-007 5.63733e-007 -5.93684e-007 -3.7921 -1.552 1.4806 2.41051e-007 5.63733e-007 -5.93684e-007 -1.4655 -1.808 0.9609 9.54166e-015 0 6.36111e-015 -4.9141 -1.269 0.3592 2.41051e-007 5.63733e-007 -5.93684e-007 -3.1477 -1.685 0.8462 2.41051e-007 5.63733e-007 -5.93684e-007 -0.8055 -1.585 0.7955 9.54166e-015 0 6.36111e-015 8.367 -8.2066 0.5982 134.133 -43.8065 131.473 2.1923 -43.463 -0.4932 33.7606 64.5838 -29.914 0.7333 -45.8593 -2.6451 -18.2273 16.8077 10.3257 -8.367 -8.2066 0.5982 149.054 -33.1216 157.756 -2.1923 -43.463 -0.4931 79.6476 47.3114 -80.5575 -0.7333 -45.8593 -2.6451 1.01035 15.6878 8.34352 
